<svg xmlns="http://www.w3.org/2000/svg" width="600" height="400" viewBox="0 0 600 400"><rect width="100%" height="100%" fill="#1a1a2e"/><path fill="#fff" d="M158.055 195.545q0 4.37-1.45 8.03-1.46 3.65-4.1 6.3-2.64 2.63-6.35 4.09-3.72 1.46-8.25 1.46h-15.16v-39.77h15.16q4.53 0 8.25 1.48 3.71 1.47 6.35 4.09 2.64 2.63 4.1 6.29 1.45 3.66 1.45 8.03m-7.59 0q0-3.28-.86-5.87-.87-2.6-2.51-4.4-1.63-1.81-3.96-2.77-2.32-.96-5.23-.96h-7.73v28h7.73q2.91 0 5.23-.97 2.33-.96 3.96-2.76 1.64-1.8 2.51-4.4.86-2.6.86-5.87m18.4 2.53h12.81q0-1.32-.37-2.49t-1.11-2.05-1.88-1.39q-1.15-.51-2.66-.51-2.94 0-4.63 1.68t-2.16 4.76m17.32 4.09h-17.46q.17 2.18.77 3.76.61 1.58 1.6 2.61t2.35 1.54 3.01.51 2.85-.38q1.19-.39 2.09-.86.89-.46 1.56-.85.68-.39 1.31-.39.85 0 1.26.64l1.96 2.47q-1.13 1.32-2.53 2.22-1.41.89-2.93 1.43-1.53.53-3.11.75t-3.07.22q-2.94 0-5.47-.97-2.53-.98-4.4-2.89t-2.94-4.73-1.07-6.53q0-2.89.93-5.43.94-2.55 2.68-4.43 1.75-1.89 4.27-2.98 2.51-1.11 5.67-1.11 2.67 0 4.93.86 2.25.85 3.87 2.49 1.63 1.63 2.55 4.01t.92 5.43q0 1.54-.33 2.08-.33.53-1.27.53m25.44-11.9-1.54 2.45q-.27.44-.57.61-.31.18-.78.18-.49 0-1.05-.27-.57-.28-1.31-.62-.74-.35-1.69-.62-.95-.28-2.24-.28-2.01 0-3.15.86-1.14.85-1.14 2.22 0 .91.59 1.53t1.57 1.09q.97.46 2.21.84 1.24.37 2.52.81 1.27.44 2.51 1 1.24.57 2.22 1.43.97.87 1.56 2.08t.59 2.91q0 2.04-.72 3.76-.73 1.72-2.16 2.97t-3.54 1.95q-2.1.7-4.85.7-1.46 0-2.85-.26t-2.66-.73q-1.28-.47-2.37-1.1t-1.91-1.37l1.57-2.59q.3-.47.71-.72.41-.24 1.05-.24.63 0 1.19.36.57.35 1.31.76.74.42 1.75.78 1 .35 2.54.35 1.21 0 2.08-.29.86-.29 1.43-.75.56-.47.82-1.09t.26-1.28q0-.99-.59-1.62t-1.57-1.1q-.97-.47-2.22-.84-1.26-.37-2.56-.81-1.31-.44-2.56-1.03t-2.23-1.5q-.97-.91-1.56-2.23-.6-1.32-.6-3.19 0-1.73.69-3.3.69-1.56 2.02-2.73 1.34-1.17 3.33-1.87 1.99-.71 4.61-.71 2.91 0 5.3.97 2.4.96 3.99 2.53m5.64-3.05h6.82v28.21h-6.82zm7.75-8.23q0 .88-.35 1.65-.36.77-.95 1.35t-1.39.92q-.8.35-1.71.35-.88 0-1.66-.35-.78-.34-1.36-.92t-.92-1.35q-.35-.77-.35-1.65 0-.9.35-1.7.34-.8.92-1.38.58-.57 1.36-.92.78-.34 1.66-.34.91 0 1.71.34.8.35 1.39.92.59.58.95 1.38.35.8.35 1.7m16.31 21.65q1.27 0 2.2-.35.94-.34 1.56-.95.61-.6.93-1.46.32-.85.32-1.86 0-2.09-1.25-3.32-1.26-1.22-3.76-1.22t-3.75 1.22q-1.25 1.23-1.25 3.32 0 .98.31 1.84.32.85.94 1.47t1.57.96q.94.35 2.18.35m7.67 16.05q0-.82-.49-1.34-.5-.52-1.35-.81t-1.99-.43-2.42-.21q-1.28-.06-2.64-.12t-2.66-.22q-1.12.63-1.82 1.48-.71.86-.71 1.98 0 .75.38 1.39.37.65 1.18 1.12t2.1.73 3.16.26q1.9 0 3.28-.29 1.37-.29 2.27-.8.89-.51 1.3-1.21t.41-1.53m-1.34-28.51h8.11v2.53q0 1.21-1.46 1.48l-2.53.47q.58 1.46.58 3.19 0 2.09-.84 3.78t-2.32 2.87q-1.49 1.19-3.51 1.83-2.02.65-4.36.65-.82 0-1.59-.08-.77-.09-1.52-.22-1.32.79-1.32 1.79 0 .85.79 1.25.78.39 2.07.56 1.3.16 2.95.21 1.65.04 3.38.18 1.73.13 3.38.48 1.65.34 2.94 1.08 1.3.74 2.08 2.02t.78 3.29q0 1.87-.92 3.63t-2.66 3.14q-1.75 1.37-4.29 2.21-2.55.84-5.79.84-3.19 0-5.56-.62-2.36-.62-3.93-1.65t-2.34-2.38-.77-2.8q0-1.99 1.2-3.32 1.19-1.33 3.28-2.13-1.12-.58-1.78-1.54t-.66-2.53q0-.63.23-1.31.23-.67.69-1.33.45-.66 1.14-1.25t1.62-1.06q-2.14-1.15-3.37-3.08-1.22-1.93-1.22-4.51 0-2.09.84-3.78t2.34-2.89q1.49-1.2 3.54-1.83t4.47-.63q1.82 0 3.41.37 1.6.37 2.92 1.09m18.28.27.47 2.23q.85-.85 1.8-1.58t2.01-1.24 2.27-.8 2.64-.29q2.31 0 4.1.79 1.78.78 2.98 2.2t1.82 3.38q.61 1.97.61 4.33v17.96h-6.79v-17.96q0-2.58-1.18-4t-3.6-1.42q-1.76 0-3.3.8t-2.92 2.17v20.41h-6.79v-28.21h4.15q1.32 0 1.73 1.23m62.59-9.04-1.84 3.49q-.33.57-.7.84-.37.26-.92.26-.58 0-1.25-.43-.68-.43-1.61-.95-.94-.52-2.19-.95-1.25-.42-2.95-.42-1.54 0-2.7.37-1.15.37-1.94 1.03-.78.66-1.17 1.58-.38.92-.38 2.02 0 1.41.78 2.34.79.93 2.08 1.59t2.94 1.19q1.65.52 3.38 1.11 1.74.59 3.39 1.38 1.65.78 2.94 1.98 1.29 1.19 2.08 2.93.78 1.73.78 4.2 0 2.7-.92 5.05t-2.7 4.1q-1.77 1.74-4.33 2.75-2.56 1-5.86 1-1.89 0-3.74-.37-1.84-.37-3.53-1.06t-3.18-1.65q-1.48-.96-2.64-2.15l2.18-3.54q.27-.39.71-.65t.94-.26q.68 0 1.48.56.8.57 1.9 1.26 1.1.68 2.57 1.25 1.47.56 3.53.56 3.17 0 4.9-1.5t1.73-4.3q0-1.57-.78-2.56-.79-.99-2.08-1.66-1.29-.68-2.94-1.14-1.65-.47-3.36-1.02-1.7-.55-3.35-1.32t-2.94-2.01q-1.3-1.24-2.08-3.09-.78-1.86-.78-4.58 0-2.17.86-4.24.87-2.06 2.52-3.66 1.65-1.59 4.07-2.55t5.55-.96q3.52 0 6.49 1.1 2.97 1.09 5.06 3.08m26.27 7.81h5.44l-15.37 35.96q-.3.72-.78 1.09-.49.37-1.48.37h-5.06l5.28-11.33-11.41-26.09h5.97q.8 0 1.25.38t.67.88l6 14.63q.3.74.51 1.48.2.75.4 1.52.24-.77.49-1.53t.55-1.5l5.67-14.6q.22-.55.73-.91.5-.35 1.14-.35m27.58 3.05-1.54 2.45q-.28.44-.58.61-.3.18-.77.18-.49 0-1.06-.27-.56-.28-1.3-.62-.75-.35-1.69-.62-.95-.28-2.25-.28-2 0-3.14.86-1.14.85-1.14 2.22 0 .91.59 1.53t1.56 1.09q.98.46 2.22.84 1.24.37 2.51.81 1.28.44 2.52 1 1.24.57 2.21 1.43.98.87 1.57 2.08t.59 2.91q0 2.04-.73 3.76t-2.15 2.97q-1.44 1.25-3.54 1.95t-4.85.7q-1.46 0-2.85-.26t-2.67-.73-2.36-1.1q-1.09-.63-1.91-1.37l1.56-2.59q.31-.47.72-.72.41-.24 1.04-.24.64 0 1.2.36.57.35 1.31.76.74.42 1.74.78 1.01.35 2.55.35 1.21 0 2.07-.29.87-.29 1.43-.75.57-.47.83-1.09t.26-1.28q0-.99-.59-1.62t-1.57-1.1-2.23-.84-2.55-.81q-1.31-.44-2.56-1.03t-2.23-1.5q-.97-.91-1.57-2.23-.59-1.32-.59-3.19 0-1.73.69-3.3.69-1.56 2.02-2.73 1.34-1.17 3.33-1.87 1.99-.71 4.6-.71 2.92 0 5.31.97 2.39.96 3.99 2.53m14.82 25.6q-3.68 0-5.65-2.08-1.97-2.07-1.97-5.73v-15.76h-2.88q-.55 0-.94-.35-.38-.36-.38-1.08v-2.69l4.53-.75 1.44-7.7q.13-.54.52-.85.38-.3.99-.3h3.52v8.88h7.53v4.84h-7.53v15.29q0 1.32.64 2.06.65.75 1.78.75.63 0 1.06-.15.42-.15.74-.32.31-.17.56-.32t.5-.15q.3 0 .49.15.2.15.41.46l2.04 3.3q-1.49 1.24-3.41 1.87t-3.99.63m16.42-17.79h12.81q0-1.32-.37-2.49t-1.11-2.05-1.88-1.39q-1.15-.51-2.66-.51-2.94 0-4.63 1.68t-2.16 4.76m17.32 4.09h-17.46q.17 2.18.77 3.76.61 1.58 1.6 2.61t2.35 1.54 3.01.51 2.85-.38q1.19-.39 2.09-.86.89-.46 1.56-.85.68-.39 1.31-.39.85 0 1.26.64l1.96 2.47q-1.13 1.32-2.53 2.22-1.41.89-2.93 1.43-1.53.53-3.11.75t-3.07.22q-2.94 0-5.47-.97-2.53-.98-4.4-2.89t-2.94-4.73-1.07-6.53q0-2.89.93-5.43.94-2.55 2.68-4.43 1.75-1.89 4.27-2.98 2.51-1.11 5.67-1.11 2.67 0 4.93.86 2.25.85 3.88 2.49 1.62 1.63 2.54 4.01t.92 5.43q0 1.54-.33 2.08-.33.53-1.27.53m13.48 13.26h-6.79v-28.21h4.15q1.32 0 1.73 1.23l.44 2.09q.75-.82 1.56-1.51t1.73-1.18q.92-.5 1.98-.79t2.32-.29q2.67 0 4.39 1.45 1.72 1.44 2.57 3.83.66-1.4 1.65-2.4.99-1.01 2.17-1.64 1.19-.63 2.52-.93 1.33-.31 2.68-.31 2.34 0 4.15.72 1.82.71 3.05 2.09 1.24 1.37 1.89 3.35t.65 4.54v17.96h-6.8v-17.96q0-2.69-1.18-4.05-1.18-1.37-3.47-1.37-1.04 0-1.93.36-.9.36-1.57 1.03-.67.68-1.06 1.69-.39 1.02-.39 2.34v17.96h-6.81v-17.96q0-2.83-1.15-4.12-1.14-1.3-3.34-1.3-1.48 0-2.76.73t-2.38 2z"/></svg>