<svg xmlns="http://www.w3.org/2000/svg" width="600" height="400" viewBox="0 0 600 400"><rect width="100%" height="100%" fill="#1a1a2e"/><path fill="#fff" d="M141.18 189.315h-13.8v9.2h11.65v4.63h-11.65v12.66h-5.81v-31.09h19.61zm4.06 4.43h5.33v22.06h-5.33zm6.07-6.43q0 .69-.28 1.29t-.75 1.06q-.46.45-1.08.72-.63.26-1.33.26-.69 0-1.31-.26-.61-.27-1.06-.72-.45-.46-.72-1.06t-.27-1.29q0-.71.27-1.33t.72-1.08q.45-.45 1.06-.72.62-.26 1.31-.26.7 0 1.33.26.62.27 1.08.72.47.46.75 1.08t.28 1.33m9.28 7.4.37 1.74q.67-.67 1.41-1.24t1.57-.96q.82-.4 1.77-.63.95-.22 2.06-.22 1.81 0 3.21.61t2.33 1.72q.94 1.11 1.42 2.64.48 1.54.48 3.39v14.04h-5.31v-14.04q0-2.02-.92-3.13-.93-1.11-2.82-1.11-1.37 0-2.58.63-1.2.62-2.28 1.7v15.95h-5.31v-22.06h3.25q1.03 0 1.35.97m27.01 21.43q-2.88 0-4.42-1.62t-1.54-4.48v-12.32h-2.26q-.43 0-.73-.28t-.3-.84v-2.11l3.55-.58 1.12-6.02q.11-.43.41-.66.3-.24.77-.24h2.75v6.94h5.89v3.79h-5.89v11.95q0 1.03.51 1.61.5.59 1.38.59.5 0 .83-.12.34-.12.58-.25.25-.13.44-.25.2-.12.39-.12.24 0 .39.12t.32.36l1.59 2.58q-1.16.96-2.67 1.46-1.5.49-3.11.49m12.83-13.91h10.02q0-1.03-.29-1.94-.29-.92-.87-1.6-.58-.69-1.47-1.09t-2.08-.4q-2.3 0-3.62 1.31-1.32 1.32-1.69 3.72m13.55 3.21h-13.65q.12 1.7.6 2.93.47 1.24 1.24 2.04.78.81 1.84 1.21 1.07.4 2.36.4t2.22-.3q.94-.31 1.64-.67.69-.37 1.22-.67t1.02-.3q.67 0 .99.5l1.53 1.93q-.88 1.03-1.98 1.73t-2.29 1.12-2.43.59-2.4.17q-2.3 0-4.27-.76-1.98-.76-3.44-2.26-1.47-1.49-2.31-3.7-.83-2.2-.83-5.1 0-2.26.73-4.25t2.09-3.46q1.37-1.47 3.34-2.33 1.96-.86 4.44-.86 2.08 0 3.84.66 1.77.67 3.04 1.95 1.26 1.28 1.98 3.14t.72 4.24q0 1.21-.25 1.63-.26.42-.99.42m22.42-8.97-1.4 1.94q-.23.3-.46.47-.22.17-.65.17-.41 0-.8-.25-.39-.24-.92-.55-.54-.32-1.28-.56-.74-.25-1.84-.25-1.4 0-2.45.5-1.06.51-1.75 1.46-.7.94-1.05 2.29-.34 1.34-.34 3.04 0 1.76.38 3.14.37 1.37 1.08 2.31.71.93 1.72 1.42 1.01.48 2.28.48t2.05-.31q.79-.31 1.33-.69.53-.38.93-.69t.89-.31q.65 0 .97.5l1.53 1.93q-.88 1.03-1.92 1.73-1.03.7-2.14 1.12-1.1.42-2.27.59-1.18.17-2.34.17-2.04 0-3.85-.76-1.8-.76-3.16-2.23-1.35-1.46-2.14-3.58-.78-2.11-.78-4.82 0-2.43.7-4.51.7-2.07 2.05-3.59 1.36-1.51 3.36-2.37t4.6-.86q2.47 0 4.33.79 1.86.8 3.34 2.28m8.84-12.62v12.26q1.29-1.21 2.84-1.96 1.54-.75 3.63-.75 1.81 0 3.2.61 1.4.61 2.34 1.72.93 1.11 1.42 2.64.48 1.54.48 3.39v14.04h-5.31v-14.04q0-2.02-.93-3.13-.92-1.11-2.81-1.11-1.38 0-2.58.63-1.21.62-2.28 1.7v15.95h-5.31v-31.95zm57.83 16.41q0 3.41-1.14 6.27t-3.2 4.93q-2.06 2.06-4.97 3.2-2.9 1.14-6.45 1.14h-11.84v-31.09h11.84q3.55 0 6.45 1.15 2.91 1.15 4.97 3.2 2.06 2.06 3.2 4.92t1.14 6.28m-5.93 0q0-2.56-.68-4.59-.67-2.04-1.95-3.44-1.28-1.41-3.1-2.17-1.82-.75-4.1-.75h-6.04v21.89h6.04q2.28 0 4.1-.75 1.82-.76 3.1-2.16 1.28-1.41 1.95-3.44.68-2.04.68-4.59m21.84 9.84v-3.72q-2.3.11-3.87.4t-2.51.74q-.95.45-1.36 1.06-.4.6-.4 1.31 0 1.39.82 2 .83.6 2.16.6 1.64 0 2.83-.59t2.33-1.8m-11.22-11.59-.95-1.69q3.81-3.49 9.16-3.49 1.94 0 3.47.64 1.52.63 2.58 1.76 1.05 1.13 1.6 2.7t.55 3.44v13.93h-2.41q-.76 0-1.16-.23-.41-.22-.65-.91l-.47-1.59q-.84.75-1.64 1.32-.79.57-1.65.96t-1.84.59-2.16.2q-1.4 0-2.58-.37-1.18-.38-2.04-1.13t-1.34-1.87q-.47-1.12-.47-2.6 0-.84.28-1.67t.91-1.58q.64-.75 1.65-1.42t2.48-1.16q1.48-.49 3.43-.81 1.96-.31 4.47-.37v-1.29q0-2.22-.94-3.28-.95-1.07-2.73-1.07-1.29 0-2.14.31-.85.3-1.5.67-.64.38-1.17.68-.52.3-1.17.3-.56 0-.95-.29-.38-.29-.62-.68m36.06-2.38-1.21 1.91q-.21.34-.45.48t-.6.14q-.39 0-.83-.21-.44-.22-1.02-.48-.58-.27-1.32-.49-.74-.21-1.75-.21-1.57 0-2.47.66-.89.67-.89 1.74 0 .71.46 1.2.47.48 1.23.85.76.36 1.73.65t1.97.64q1 .34 1.96.78.97.44 1.73 1.12.77.68 1.23 1.62.46.95.46 2.28 0 1.59-.57 2.94-.57 1.34-1.68 2.32-1.12.98-2.77 1.53-1.64.54-3.79.54-1.14 0-2.23-.2-1.08-.2-2.08-.57t-1.85-.86-1.5-1.08l1.23-2.02q.24-.36.56-.56.32-.19.82-.19.49 0 .93.28t1.02.6q.58.33 1.37.6.78.28 1.99.28.94 0 1.62-.22.68-.23 1.12-.59.44-.37.64-.85.21-.49.21-1 0-.78-.47-1.27-.46-.49-1.22-.86t-1.74-.66-2-.63-2-.81q-.98-.46-1.74-1.17-.77-.71-1.23-1.74t-.46-2.49q0-1.36.54-2.58.53-1.23 1.58-2.14 1.04-.92 2.6-1.46 1.56-.55 3.6-.55 2.28 0 4.15.75t3.12 1.98m9.54-12.28v12.26q1.29-1.21 2.84-1.96t3.63-.75q1.81 0 3.21.61 1.39.61 2.33 1.72t1.42 2.64q.48 1.54.48 3.39v14.04h-5.31v-14.04q0-2.02-.92-3.13-.93-1.11-2.82-1.11-1.37 0-2.58.63-1.2.62-2.28 1.7v15.95h-5.31v-31.95zm24.25 16.34v9.89q.91 1.1 1.97 1.55 1.07.45 2.25.45 1.22 0 2.2-.44t1.67-1.38q.69-.93 1.05-2.38.37-1.45.37-3.48 0-3.63-1.21-5.25-1.2-1.63-3.46-1.63-1.52 0-2.66.7t-2.18 1.97m0-16.34v12.6q1.34-1.4 2.96-2.23 1.62-.82 3.71-.82 1.91 0 3.45.75t2.62 2.16q1.09 1.41 1.67 3.41t.58 4.49q0 2.69-.67 4.88-.66 2.19-1.9 3.75t-2.98 2.42-3.87.86q-1.03 0-1.87-.2-.84-.21-1.55-.57-.71-.37-1.3-.89-.59-.53-1.13-1.18l-.23 1.49q-.13.56-.44.79-.31.24-.85.24h-3.51v-31.95zm28.86 9.55q2.45 0 4.46.79 2.01.8 3.44 2.26t2.2 3.57q.78 2.11.78 4.71 0 2.62-.78 4.73-.77 2.1-2.2 3.59-1.43 1.48-3.44 2.28-2.01.79-4.46.79-2.48 0-4.5-.79-2.02-.8-3.45-2.28-1.43-1.49-2.21-3.59-.79-2.11-.79-4.73 0-2.6.79-4.71.78-2.11 2.21-3.57t3.45-2.26q2.02-.79 4.5-.79m0 18.64q2.75 0 4.07-1.85t1.32-5.42-1.32-5.44-4.07-1.87q-2.8 0-4.14 1.88-1.35 1.88-1.35 5.43t1.35 5.41q1.34 1.86 4.14 1.86m26.59-1.94v-3.72q-2.3.11-3.87.4t-2.51.74q-.95.45-1.36 1.06-.41.6-.41 1.31 0 1.39.83 2 .83.6 2.16.6 1.64 0 2.83-.59t2.33-1.8m-11.22-11.59-.95-1.69q3.81-3.49 9.16-3.49 1.94 0 3.46.64 1.53.63 2.58 1.76 1.06 1.13 1.61 2.7.54 1.57.54 3.44v13.93h-2.4q-.76 0-1.16-.23-.41-.22-.65-.91l-.47-1.59q-.84.75-1.64 1.32-.79.57-1.65.96t-1.84.59-2.16.2q-1.4 0-2.58-.37-1.18-.38-2.04-1.13t-1.34-1.87q-.47-1.12-.47-2.6 0-.84.28-1.67t.91-1.58q.64-.75 1.65-1.42t2.48-1.16 3.43-.81q1.96-.31 4.47-.37v-1.29q0-2.22-.94-3.28-.95-1.07-2.73-1.07-1.29 0-2.14.31-.85.3-1.5.67-.64.38-1.17.68t-1.17.3q-.56 0-.95-.29-.38-.29-.62-.68m26.08-3.44.32 2.5q1.03-1.98 2.45-3.11t3.36-1.13q1.52 0 2.45.67l-.35 3.98q-.1.38-.31.54-.2.17-.55.17-.32 0-.95-.11-.64-.11-1.24-.11-.88 0-1.57.26t-1.23.74q-.55.48-.97 1.17t-.79 1.57v13.59h-5.31v-22.06h3.12q.82 0 1.14.29t.43 1.04m25.2 14.19v-9.89q-.91-1.09-1.97-1.54-1.06-.46-2.29-.46-1.2 0-2.17.46-.97.45-1.66 1.36-.68.91-1.05 2.32t-.37 3.32q0 1.94.32 3.28.31 1.35.89 2.2t1.42 1.22q.84.38 1.87.38 1.65 0 2.81-.69 1.17-.69 2.2-1.96m0-25.41h5.31v31.95h-3.25q-1.05 0-1.33-.97l-.45-2.13q-1.34 1.53-3.07 2.48-1.73.94-4.03.94-1.8 0-3.31-.75-1.5-.75-2.59-2.18t-1.68-3.54-.59-4.82q0-2.45.67-4.55.66-2.11 1.91-3.66t2.99-2.42 3.91-.87q1.85 0 3.16.58 1.32.58 2.35 1.57z"/></svg>