<svg xmlns="http://www.w3.org/2000/svg" width="600" height="400" viewBox="0 0 600 400"><rect width="100%" height="100%" fill="#1a1a2e"/><path fill="#fff" d="M141.08 188.805h-14.12v8.82h11.13v4.55h-11.13v9h14.12v4.73h-20.06v-31.81h20.06zm4.2 16.08v-4.53h11.4v4.53zm34.19-8.76-1.43 1.98q-.24.31-.47.49-.23.17-.67.17-.42 0-.82-.25-.39-.25-.94-.57t-1.31-.58q-.76-.25-1.88-.25-1.43 0-2.51.52t-1.79 1.48q-.72.97-1.07 2.35-.35 1.37-.35 3.11 0 1.8.38 3.21.39 1.41 1.11 2.37.73.95 1.76 1.45 1.04.49 2.34.49 1.29 0 2.1-.32.8-.31 1.35-.7.55-.38.96-.7.4-.32.91-.32.66 0 .99.5l1.56 1.98q-.9 1.06-1.96 1.78-1.05.71-2.19 1.14-1.13.43-2.33.6-1.2.18-2.38.18-2.09 0-3.94-.78t-3.24-2.28q-1.38-1.49-2.19-3.66-.8-2.17-.8-4.94 0-2.49.72-4.61.71-2.12 2.1-3.67 1.38-1.55 3.43-2.43t4.71-.88q2.53 0 4.43.81t3.42 2.33m13.6-3.14q2.51 0 4.56.81 2.06.81 3.52 2.31 1.47 1.5 2.26 3.65.79 2.16.79 4.82 0 2.68-.79 4.84t-2.26 3.67q-1.46 1.52-3.52 2.34-2.05.81-4.56.81-2.53 0-4.6-.81-2.07-.82-3.53-2.34-1.46-1.51-2.27-3.67-.8-2.16-.8-4.84 0-2.66.8-4.82.81-2.15 2.27-3.65t3.53-2.31 4.6-.81m0 19.07q2.81 0 4.17-1.89 1.35-1.89 1.35-5.55 0-3.65-1.35-5.56-1.36-1.92-4.17-1.92-2.86 0-4.24 1.93-1.37 1.92-1.37 5.55t1.37 5.54q1.38 1.9 4.24 1.9m20.72 3.85h-5.43v-22.57h3.32q1.06 0 1.39.99l.35 1.67q.59-.66 1.24-1.21t1.39-.95q.73-.39 1.58-.62t1.86-.23q2.13 0 3.51 1.15 1.37 1.16 2.06 3.07.52-1.12 1.32-1.93.79-.8 1.73-1.3.95-.51 2.02-.75 1.06-.24 2.14-.24 1.87 0 3.32.57 1.46.57 2.45 1.67t1.5 2.68q.52 1.59.52 3.63v14.37h-5.43v-14.37q0-2.15-.95-3.24t-2.77-1.09q-.84 0-1.55.29-.72.28-1.26.82t-.84 1.35q-.31.82-.31 1.87v14.37h-5.46v-14.37q0-2.26-.91-3.3-.91-1.03-2.67-1.03-1.19 0-2.22.58-1.02.59-1.9 1.6zm36.85 0h-5.43v-22.57h3.32q1.06 0 1.39.99l.35 1.67q.59-.66 1.24-1.21t1.39-.95q.73-.39 1.58-.62t1.86-.23q2.13 0 3.51 1.15 1.37 1.16 2.06 3.07.52-1.12 1.32-1.93.79-.8 1.73-1.3.95-.51 2.02-.75 1.06-.24 2.14-.24 1.87 0 3.32.57 1.46.57 2.45 1.67t1.5 2.68q.52 1.59.52 3.63v14.37h-5.43v-14.37q0-2.15-.95-3.24t-2.77-1.09q-.84 0-1.55.29-.72.28-1.26.82t-.84 1.35q-.31.82-.31 1.87v14.37h-5.46v-14.37q0-2.26-.91-3.3-.91-1.03-2.67-1.03-1.19 0-2.22.58-1.02.59-1.9 1.6zm35.71-13.88h10.25q0-1.06-.3-1.99-.29-.94-.89-1.64-.59-.71-1.51-1.11-.91-.41-2.12-.41-2.35 0-3.71 1.34-1.35 1.34-1.72 3.81m13.86 3.28h-13.97q.13 1.73.61 3 .49 1.26 1.28 2.09.79.82 1.88 1.23t2.41.41 2.28-.31q.95-.31 1.67-.68.71-.38 1.25-.68.54-.31 1.05-.31.68 0 1.01.5l1.56 1.98q-.9 1.06-2.02 1.78-1.12.71-2.35 1.14-1.22.43-2.48.6-1.27.18-2.45.18-2.36 0-4.38-.78-2.03-.78-3.52-2.31-1.5-1.53-2.36-3.78-.85-2.26-.85-5.23 0-2.31.74-4.34.75-2.04 2.15-3.55 1.4-1.5 3.41-2.38t4.54-.88q2.14 0 3.94.68t3.1 1.99 2.04 3.21q.73 1.9.73 4.35 0 1.23-.26 1.66t-1.01.43m10.14-10.61.33 2.55q1.06-2.02 2.51-3.17 1.45-1.16 3.43-1.16 1.56 0 2.51.68l-.35 4.07q-.11.4-.32.56-.21.17-.56.17-.33 0-.98-.11t-1.27-.11q-.9 0-1.6.26-.71.27-1.27.76-.56.5-.99 1.2t-.8 1.61v13.9h-5.44v-22.57h3.19q.84 0 1.17.3.33.29.44 1.06m29.21 1.43-1.42 1.98q-.25.31-.48.49-.23.17-.67.17-.42 0-.81-.25-.4-.25-.95-.57t-1.31-.58q-.76-.25-1.88-.25-1.43 0-2.51.52-1.07.52-1.79 1.48-.71.97-1.07 2.35-.35 1.37-.35 3.11 0 1.8.39 3.21.38 1.41 1.11 2.37.72.95 1.76 1.45 1.03.49 2.33.49t2.1-.32q.8-.31 1.35-.7.55-.38.96-.7t.91-.32q.66 0 .99.5l1.56 1.98q-.9 1.06-1.95 1.78-1.06.71-2.19 1.14t-2.33.6q-1.2.18-2.39.18-2.09 0-3.94-.78t-3.23-2.28q-1.39-1.49-2.19-3.66t-.8-4.94q0-2.49.71-4.61.72-2.12 2.1-3.67 1.39-1.55 3.43-2.43 2.05-.88 4.71-.88 2.53 0 4.43.81 1.91.81 3.42 2.33m7.9 5.9h10.26q0-1.06-.3-1.99-.3-.94-.89-1.64-.6-.71-1.51-1.11-.91-.41-2.12-.41-2.36 0-3.71 1.34t-1.73 3.81m13.86 3.28h-13.97q.14 1.73.62 3 .48 1.26 1.28 2.09.79.82 1.88 1.23t2.41.41 2.27-.31q.96-.31 1.67-.68.72-.38 1.26-.68.54-.31 1.04-.31.69 0 1.02.5l1.56 1.98q-.91 1.06-2.03 1.78-1.12.71-2.34 1.14t-2.49.6q-1.26.18-2.45.18-2.35 0-4.38-.78-2.02-.78-3.52-2.31-1.49-1.53-2.35-3.78-.86-2.26-.86-5.23 0-2.31.75-4.34.75-2.04 2.14-3.55 1.4-1.5 3.41-2.38 2.02-.88 4.55-.88 2.13 0 3.94.68 1.8.68 3.1 1.99 1.29 1.31 2.03 3.21t.74 4.35q0 1.23-.26 1.66-.27.43-1.02.43m35.31-18.22-1.47 2.79q-.26.47-.56.68-.3.2-.74.2-.46 0-1-.34t-1.29-.76q-.74-.41-1.75-.75-1-.35-2.36-.35-1.23 0-2.16.3-.92.3-1.55.83-.62.52-.93 1.26t-.31 1.62q0 1.12.63 1.87.62.75 1.66 1.27 1.03.53 2.35.95t2.71.89q1.38.47 2.7 1.1t2.36 1.59q1.03.95 1.66 2.34.62 1.38.62 3.36 0 2.16-.73 4.04-.74 1.88-2.16 3.28t-3.46 2.2q-2.05.8-4.69.8-1.52 0-2.99-.3-1.47-.29-2.83-.84-1.35-.55-2.54-1.32t-2.11-1.72l1.74-2.84q.22-.3.57-.51t.75-.21q.55 0 1.19.45.63.45 1.51 1t2.06 1 2.83.45q2.53 0 3.91-1.2 1.39-1.2 1.39-3.44 0-1.25-.63-2.05-.62-.79-1.66-1.33-1.03-.54-2.35-.91t-2.69-.81q-1.36-.44-2.68-1.06t-2.35-1.61q-1.04-.99-1.67-2.47-.62-1.49-.62-3.66 0-1.74.69-3.39t2.01-2.93q1.32-1.27 3.26-2.04t4.44-.77q2.82 0 5.2.88 2.37.88 4.04 2.46m12.39 29.17q-2.95 0-4.52-1.66t-1.57-4.59v-12.6h-2.31q-.44 0-.75-.29-.31-.28-.31-.86v-2.15l3.63-.6 1.14-6.16q.11-.44.42-.68t.79-.24h2.82v7.11h6.03v3.87h-6.03v12.23q0 1.06.52 1.65.51.59 1.42.59.5 0 .84-.12t.6-.25q.25-.13.45-.25t.39-.12q.25 0 .4.12t.33.36l1.63 2.64q-1.19.99-2.73 1.5-1.54.5-3.19.5m18.83-23.27q2.51 0 4.57.81 2.05.81 3.52 2.31 1.46 1.5 2.25 3.65.79 2.16.79 4.82 0 2.68-.79 4.84t-2.25 3.67q-1.47 1.52-3.52 2.34-2.06.81-4.57.81-2.53 0-4.6-.81-2.06-.82-3.53-2.34-1.46-1.51-2.26-3.67-.81-2.16-.81-4.84 0-2.66.81-4.82.8-2.15 2.26-3.65 1.47-1.5 3.53-2.31 2.07-.81 4.6-.81m0 19.07q2.82 0 4.17-1.89t1.35-5.55q0-3.65-1.35-5.56-1.35-1.92-4.17-1.92-2.86 0-4.23 1.93-1.38 1.92-1.38 5.55t1.38 5.54q1.37 1.9 4.23 1.9m20.09-17.36.33 2.55q1.05-2.02 2.51-3.17 1.45-1.16 3.43-1.16 1.56 0 2.51.68l-.36 4.07q-.11.4-.32.56-.21.17-.56.17-.33 0-.98-.11-.64-.11-1.26-.11-.9 0-1.61.26-.7.27-1.26.76-.56.5-.99 1.2t-.8 1.61v13.9h-5.44v-22.57h3.19q.84 0 1.17.3.33.29.44 1.06m15.9 7.33h10.26q0-1.06-.3-1.99-.3-.94-.89-1.64-.6-.71-1.51-1.11-.91-.41-2.12-.41-2.36 0-3.71 1.34t-1.73 3.81m13.86 3.28h-13.97q.14 1.73.62 3 .48 1.26 1.28 2.09.79.82 1.88 1.23t2.41.41q1.31 0 2.27-.31t1.67-.68q.72-.38 1.26-.68.54-.31 1.04-.31.69 0 1.01.5l1.57 1.98q-.9 1.06-2.03 1.78-1.12.71-2.34 1.14t-2.49.6q-1.26.18-2.45.18-2.35 0-4.38-.78-2.02-.78-3.52-2.31-1.49-1.53-2.35-3.78-.86-2.26-.86-5.23 0-2.31.75-4.34.75-2.04 2.14-3.55 1.4-1.5 3.41-2.38 2.02-.88 4.55-.88 2.13 0 3.94.68 1.8.68 3.1 1.99t2.03 3.21q.74 1.9.74 4.35 0 1.23-.26 1.66-.27.43-1.02.43"/></svg>